{
  "source": "C:\\Users\\Peter\\Desktop\\stuff\\MIUN\\quantitative_research\\video_compression\\videos\\BVI-HD\\BVI-HD_CDVL_videos\\ORIG\\PaintingTilting_1920x1080_60fps.mp4",
  "output": "C:\\Users\\Peter\\Desktop\\stuff\\MIUN\\quantitative_research\\video_compression\\compressed_videos\\BVI-HD\\av1\\2.5\\PaintingTilting_1920x1080_60fps_av1.mkv",
  "codec": "av1",
  "ok": "Input #0, mov,mp4,m4a,3gp,3g2,mj2, from 'C:\\Users\\Peter\\Desktop\\stuff\\MIUN\\quantitative_research\\video_compression\\videos\\BVI-HD\\BVI-HD_CDVL_videos\\ORIG\\PaintingTilting_1920x1080_60fps.mp4':\n  Metadata:\n    major_brand     : isom\n    minor_version   : 512\n    compatible_brands: isomiso2avc1mp41\n    encoder         : Lavf54.28.101\n  Duration: 00:00:05.00, start: 0.000000, bitrate: 667707 kb/s\n  Stream #0:0[0x1](und): Video: h264 (High 4:4:4 Predictive) (avc1 / 0x31637661), yuv420p(progressive), 1920x1080, 667702 kb/s, 60 fps, 60 tbr, 60 tbn (default)\n    Metadata:\n      handler_name    : VideoHandler\n      vendor_id       : [0][0][0][0]\n[out#0/matroska @ 000001c292009000] Codec AVOption b:a (set bitrate (in bits/s)) has not been used for any stream. The most likely reason is either wrong type (e.g. a video option with no video streams) or that it is a private option of some decoder which was not actually used for any stream.\nStream mapping:\n  Stream #0:0 -> #0:0 (h264 (native) -> av1 (libsvtav1))\nPress [q] to stop, [?] for help\nSvt[info]: -------------------------------------------\nSvt[info]: SVT [version]:\tSVT-AV1 Encoder Lib v3.1.0-19-g6ecfe8ec\nSvt[info]: SVT [build]  :\tGCC 15.2.0\t 64 bit\nSvt[info]: LIB Build date: Aug 17 2025 11:37:13\nSvt[info]: -------------------------------------------\nSvt[info]: Level of Parallelism: 5\nSvt[info]: Number of PPCS 93\nSvt[info]: [asm level on system : up to avx2]\nSvt[info]: [asm level selected : up to avx2]\nSvt[info]: -------------------------------------------\nSvt[info]: SVT [config]: main profile\ttier (auto)\tlevel (auto)\nSvt[info]: SVT [config]: width / height / fps numerator / fps denominator \t\t: 1920 / 1080 / 60 / 1\nSvt[info]: SVT [config]: bit-depth / color format \t\t\t\t\t: 8 / YUV420\nSvt[info]: SVT [config]: preset / tune / pred struct \t\t\t\t\t: 4 / PSNR / random access\nSvt[info]: SVT [config]: gop size / mini-gop size / key-frame type \t\t\t: 321 / 16 / key frame\nSvt[info]: SVT [config]: BRC mode / target bitrate (kbps)\t\t\t\t: VBR / 2500 \nSvt[info]: SVT [config]: AQ mode / Variance Boost \t\t\t\t\t: 2 / 0\nSvt[info]: SVT [config]: sharpness / luminance-based QP bias \t\t\t\t: 0 / 0\nSvt[info]: SVT [config]: QP scale compress strength \t\t\t\t\t: 0\nSvt[info]: -------------------------------------------\nOutput #0, matroska, to 'C:\\Users\\Peter\\Desktop\\stuff\\MIUN\\quantitative_research\\video_compression\\compressed_videos\\BVI-HD\\av1\\2.5\\PaintingTilting_1920x1080_60fps_av1.mkv':\n  Metadata:\n    major_brand     : isom\n    minor_version   : 512\n    compatible_brands: isomiso2avc1mp41\n    encoder         : Lavf62.3.100\n  Stream #0:0(und): Video: av1 (AV01 / 0x31305641), yuv420p(tv, progressive), 1920x1080, q=2-31, 2500 kb/s, 60 fps, 1k tbn (default)\n    Metadata:\n      encoder         : Lavc62.11.100 libsvtav1\n      handler_name    : VideoHandler\n      vendor_id       : [0][0][0][0]\n    Side data:\n      cpb: bitrate max/min/avg: 0/0/2500000 buffer size: 2500000 vbv_delay: N/A\nframe=    0 fps=0.0 q=0.0 size=       0KiB time=N/A bitrate=N/A speed=N/A elapsed=0:00:01.03    \nframe=    0 fps=0.0 q=0.0 size=       0KiB time=N/A bitrate=N/A speed=N/A elapsed=0:00:01.57    \nframe=    0 fps=0.0 q=0.0 size=       0KiB time=N/A bitrate=N/A speed=N/A elapsed=0:00:02.15    \nframe=    0 fps=0.0 q=0.0 size=       0KiB time=N/A bitrate=N/A speed=N/A elapsed=0:00:02.69    \nframe=    0 fps=0.0 q=0.0 size=       0KiB time=N/A bitrate=N/A speed=N/A elapsed=0:00:03.25    \nframe=    0 fps=0.0 q=0.0 size=       0KiB time=N/A bitrate=N/A speed=N/A elapsed=0:00:03.78    \nframe=    1 fps=0.2 q=24.0 size=       1KiB time=00:00:00.00 bitrate=N/A speed=   0x elapsed=0:00:04.31    \nframe=    6 fps=1.2 q=47.0 size=       1KiB time=00:00:00.06 bitrate=  85.4kbits/s speed=0.0137x elapsed=0:00:04.85    \nframe=   14 fps=2.6 q=44.0 size=       1KiB time=00:00:00.21 bitrate=  26.3kbits/s speed=0.0401x elapsed=0:00:05.40    \nframe=   25 fps=4.2 q=38.0 size=       1KiB time=00:00:00.38 bitrate=  14.9kbits/s speed=0.0644x elapsed=0:00:05.95    \nframe=   33 fps=5.1 q=28.0 size=       1KiB time=00:00:00.51 bitrate=  11.0kbits/s speed=0.0793x elapsed=0:00:06.51    \nframe=   43 fps=6.1 q=43.0 size=       1KiB time=00:00:00.68 bitrate=   8.3kbits/s speed=0.0969x elapsed=0:00:07.05    \nframe=   56 fps=7.3 q=46.0 size=       1KiB time=00:00:00.90 bitrate=   6.3kbits/s speed=0.117x elapsed=0:00:07.68    \nframe=   67 fps=8.1 q=44.0 size=       1KiB time=00:00:01.06 bitrate=   5.3kbits/s speed=0.129x elapsed=0:00:08.27    \nframe=   75 fps=8.5 q=42.0 size=       1KiB time=00:00:01.23 bitrate=   4.6kbits/s speed=0.14x elapsed=0:00:08.83    \nframe=   85 fps=9.1 q=40.0 size=       1KiB time=00:00:01.40 bitrate=   4.1kbits/s speed=0.149x elapsed=0:00:09.38    \nframe=   92 fps=9.3 q=37.0 size=       1KiB time=00:00:01.50 bitrate=   3.8kbits/s speed=0.152x elapsed=0:00:09.89    \nframe=  102 fps=9.7 q=34.0 size=       1KiB time=00:00:01.66 bitrate=   3.4kbits/s speed=0.159x elapsed=0:00:10.48    \nframe=  109 fps=9.9 q=32.0 size=       1KiB time=00:00:01.78 bitrate=   3.2kbits/s speed=0.162x elapsed=0:00:11.03    \nframe=  118 fps= 10 q=34.0 size=       1KiB time=00:00:01.95 bitrate=   2.9kbits/s speed=0.168x elapsed=0:00:11.59    \nframe=  123 fps= 10 q=32.0 size=       1KiB time=00:00:02.03 bitrate=   2.8kbits/s speed=0.168x elapsed=0:00:12.12    \nframe=  129 fps= 10 q=23.0 size=       1KiB time=00:00:02.11 bitrate=   2.7kbits/s speed=0.167x elapsed=0:00:12.66    \nframe=  134 fps= 10 q=36.0 size=       1KiB time=00:00:02.21 bitrate=   2.6kbits/s speed=0.168x elapsed=0:00:13.20    \nframe=  139 fps= 10 q=32.0 size=       1KiB time=00:00:02.28 bitrate=   2.5kbits/s speed=0.166x elapsed=0:00:13.74    \nframe=  142 fps=9.9 q=32.0 size=       1KiB time=00:00:02.33 bitrate=   2.4kbits/s speed=0.162x elapsed=0:00:14.37    \nframe=  148 fps=9.9 q=28.0 size=       1KiB time=00:00:02.45 bitrate=   2.3kbits/s speed=0.164x elapsed=0:00:14.91    \nframe=  150 fps=9.7 q=32.0 size=       1KiB time=00:00:02.48 bitrate=   2.3kbits/s speed=0.16x elapsed=0:00:15.47    \nframe=  154 fps=9.6 q=34.0 size=       1KiB time=00:00:02.55 bitrate=   2.2kbits/s speed=0.159x elapsed=0:00:16.06    \nframe=  157 fps=9.4 q=29.0 size=       1KiB time=00:00:02.60 bitrate=   2.2kbits/s speed=0.156x elapsed=0:00:16.66    \nframe=  160 fps=9.3 q=33.0 size=       1KiB time=00:00:02.65 bitrate=   2.1kbits/s speed=0.154x elapsed=0:00:17.24    \nframe=  166 fps=9.3 q=34.0 size=       1KiB time=00:00:02.73 bitrate=   2.1kbits/s speed=0.153x elapsed=0:00:17.81    \nframe=  169 fps=9.2 q=28.0 size=       1KiB time=00:00:02.78 bitrate=   2.0kbits/s speed=0.151x elapsed=0:00:18.43    \nframe=  173 fps=9.1 q=33.0 size=       1KiB time=00:00:02.85 bitrate=   2.0kbits/s speed=0.15x elapsed=0:00:19.02    \nframe=  179 fps=9.1 q=33.0 size=       1KiB time=00:00:02.96 bitrate=   1.9kbits/s speed=0.151x elapsed=0:00:19.65    \nframe=  182 fps=9.0 q=31.0 size=       1KiB time=00:00:03.01 bitrate=   1.9kbits/s speed=0.149x elapsed=0:00:20.19    \nframe=  183 fps=8.8 q=28.0 size=       1KiB time=00:00:03.03 bitrate=   1.9kbits/s speed=0.146x elapsed=0:00:20.75    \nframe=  189 fps=8.9 q=28.0 size=       1KiB time=00:00:03.11 bitrate=   1.8kbits/s speed=0.146x elapsed=0:00:21.28    \nframe=  198 fps=9.1 q=34.0 size=       1KiB time=00:00:03.28 bitrate=   1.7kbits/s speed=0.15x elapsed=0:00:21.83    \nframe=  202 fps=9.0 q=34.0 size=       1KiB time=00:00:03.35 bitrate=   1.7kbits/s speed=0.15x elapsed=0:00:22.37    \nframe=  209 fps=9.1 q=21.0 size=       1KiB time=00:00:03.46 bitrate=   1.6kbits/s speed=0.151x elapsed=0:00:22.89    \nframe=  217 fps=9.3 q=29.0 size=       1KiB time=00:00:03.60 bitrate=   1.6kbits/s speed=0.154x elapsed=0:00:23.40    \nframe=  221 fps=9.2 q=30.0 size=       1KiB time=00:00:03.66 bitrate=   1.6kbits/s speed=0.153x elapsed=0:00:23.91    \nframe=  229 fps=9.3 q=31.0 size=       1KiB time=00:00:03.80 bitrate=   1.5kbits/s speed=0.155x elapsed=0:00:24.51    \nframe=  237 fps=9.5 q=28.0 size=       1KiB time=00:00:03.93 bitrate=   1.4kbits/s speed=0.157x elapsed=0:00:25.03    \nframe=  245 fps=9.6 q=31.0 size=       1KiB time=00:00:04.06 bitrate=   1.4kbits/s speed=0.159x elapsed=0:00:25.55    \nframe=  253 fps=9.7 q=29.0 size=       1KiB time=00:00:04.20 bitrate=   1.4kbits/s speed=0.161x elapsed=0:00:26.06    \nframe=  265 fps= 10 q=28.0 size=       1KiB time=00:00:04.40 bitrate=   1.3kbits/s speed=0.165x elapsed=0:00:26.60    \nframe=  269 fps=9.9 q=30.0 size=       1KiB time=00:00:04.46 bitrate=   1.3kbits/s speed=0.165x elapsed=0:00:27.12    \nframe=  281 fps= 10 q=33.0 size=       1KiB time=00:00:04.66 bitrate=   1.2kbits/s speed=0.169x elapsed=0:00:27.63    \n[out#0/matroska @ 000001c292009000] video:1102KiB audio:0KiB subtitle:0KiB other streams:0KiB global headers:0KiB muxing overhead: 0.188007%\nframe=  300 fps= 11 q=37.0 Lsize=    1104KiB time=00:00:04.98 bitrate=1815.3kbits/s speed=0.177x elapsed=0:00:28.12    \n",
  "seconds": 28.639514446258545,
  "probe_out": {}
}